<svg width="24" height="24" viewBox="0 0 24 24" fill="none" xmlns="http://www.w3.org/2000/svg">
<g clip-path="url(#clip0_290_6)">
<path d="M9.101 23.69V15.71H6.627V12.043H9.101V10.463C9.101 6.37797 10.949 4.48497 14.959 4.48497C15.36 4.48497 15.914 4.52697 16.427 4.58797C16.8112 4.62751 17.1924 4.69265 17.568 4.78297V8.10797C17.3509 8.08772 17.133 8.07571 16.915 8.07197C16.6707 8.06563 16.4264 8.06263 16.182 8.06297C15.475 8.06297 14.923 8.15897 14.507 8.37197C14.2273 8.51228 13.9922 8.72765 13.828 8.99397C13.57 9.41397 13.454 9.98897 13.454 10.746V12.043H17.373L16.987 14.146L16.7 15.71H13.454V23.955C19.396 23.237 24 18.178 24 12.043C24 5.41597 18.627 0.0429688 12 0.0429688C5.373 0.0429688 0 5.41597 0 12.043C0 17.671 3.874 22.393 9.101 23.69Z" fill="#8300FF"/>
</g>
<defs>
<clipPath id="clip0_290_6">
<rect width="24" height="24" fill="white"/>
</clipPath>
</defs>
</svg>
