<svg width="80" height="80" viewBox="0 0 80 80" fill="none" xmlns="http://www.w3.org/2000/svg">
<rect width="80" height="80" rx="10" fill="url(#paint0_linear_263_45)"/>
<circle cx="25" cy="57" r="10" fill="black" fill-opacity="0.42"/>
<g filter="url(#filter0_d_263_45)">
<path d="M42.6016 56.0234C39.5026 56.2578 36.4167 56.4792 33.3438 56.6875C30.2969 56.8958 27.224 57.0911 24.125 57.2734C23.9948 52.2995 23.8906 47.3646 23.8125 42.4688C23.7344 37.5469 23.5911 32.5859 23.3828 27.5859C25.1276 27.5599 26.8464 27.5078 28.5391 27.4297C30.2318 27.3516 31.9375 27.2474 33.6562 27.1172C33.3698 29.0443 33.0964 30.9844 32.8359 32.9375C32.6016 34.8646 32.4193 36.8047 32.2891 38.7578C32.1849 40.3984 32.0938 42.0391 32.0156 43.6797C31.9635 45.2943 31.9115 46.9219 31.8594 48.5625C33.5781 48.6146 35.2708 48.6406 36.9375 48.6406C38.6302 48.6406 40.3229 48.6667 42.0156 48.7188L42.6016 56.0234ZM70.5703 36.4141C70.5703 37.612 70.4141 38.7708 70.1016 39.8906C69.9193 39.9167 69.3724 39.9557 68.4609 40.0078C67.5755 40.0339 66.5078 40.0859 65.2578 40.1641C64.0339 40.2161 62.7057 40.2943 61.2734 40.3984C59.8672 40.4766 58.5521 40.5677 57.3281 40.6719C56.1302 40.776 55.1016 40.8932 54.2422 41.0234C53.4089 41.1276 52.9401 41.2318 52.8359 41.3359C52.4193 41.7005 52.1068 42.1432 51.8984 42.6641C51.6901 43.1849 51.5859 43.7057 51.5859 44.2266C51.5859 44.5391 51.612 44.7865 51.6641 44.9688C51.7422 45.125 51.8594 45.3073 52.0156 45.5156C52.0938 45.5938 52.3672 45.6589 52.8359 45.7109C53.3047 45.763 53.8255 45.8021 54.3984 45.8281C54.9714 45.8542 55.5052 45.8802 56 45.9062C56.4948 45.9062 56.7812 45.9062 56.8594 45.9062C58.7344 45.9062 60.6094 45.8672 62.4844 45.7891C64.3594 45.7109 66.2344 45.6068 68.1094 45.4766L68.4219 52.1953C65.8177 52.4036 63.2005 52.612 60.5703 52.8203C57.9661 53.0026 55.349 53.0938 52.7188 53.0938C52.5885 53.0938 52.3932 53.0938 52.1328 53.0938C51.8984 53.0938 51.638 53.0938 51.3516 53.0938C51.0651 53.0677 50.7917 53.0417 50.5312 53.0156C50.2708 52.9896 50.0885 52.9635 49.9844 52.9375C49.4375 52.7812 48.8906 52.612 48.3438 52.4297C47.8229 52.2214 47.3281 51.974 46.8594 51.6875C46.3906 51.375 45.974 51.0104 45.6094 50.5938C45.2708 50.1771 45.0234 49.6693 44.8672 49.0703C44.763 48.6797 44.6719 48.1719 44.5938 47.5469C44.5417 46.8958 44.5026 46.2318 44.4766 45.5547C44.4505 44.8776 44.4245 44.2135 44.3984 43.5625C44.3984 42.9115 44.3984 42.3646 44.3984 41.9219C44.3984 40.9062 44.4115 39.9557 44.4375 39.0703C44.4635 38.1849 44.6068 37.3776 44.8672 36.6484C45.1276 35.8932 45.5443 35.2292 46.1172 34.6562C46.7161 34.0573 47.5625 33.5365 48.6562 33.0938C49.151 32.8854 49.8932 32.7292 50.8828 32.625C51.8724 32.4948 52.901 32.4036 53.9688 32.3516C55.0625 32.2734 56.1042 32.2214 57.0938 32.1953C58.0833 32.1693 58.8516 32.1562 59.3984 32.1562C61.2214 32.1562 63.0312 32.1953 64.8281 32.2734C66.651 32.3516 68.474 32.4557 70.2969 32.5859C70.375 33.237 70.4401 33.888 70.4922 34.5391C70.5443 35.1641 70.5703 35.7891 70.5703 36.4141Z" fill="#B268FF"/>
</g>
<defs>
<filter id="filter0_d_263_45" x="19.3828" y="27.1172" width="55.1875" height="38.1562" filterUnits="userSpaceOnUse" color-interpolation-filters="sRGB">
<feFlood flood-opacity="0" result="BackgroundImageFix"/>
<feColorMatrix in="SourceAlpha" type="matrix" values="0 0 0 0 0 0 0 0 0 0 0 0 0 0 0 0 0 0 127 0" result="hardAlpha"/>
<feOffset dy="4"/>
<feGaussianBlur stdDeviation="2"/>
<feComposite in2="hardAlpha" operator="out"/>
<feColorMatrix type="matrix" values="0 0 0 0 0 0 0 0 0 0 0 0 0 0 0 0 0 0 0.25 0"/>
<feBlend mode="normal" in2="BackgroundImageFix" result="effect1_dropShadow_263_45"/>
<feBlend mode="normal" in="SourceGraphic" in2="effect1_dropShadow_263_45" result="shape"/>
</filter>
<linearGradient id="paint0_linear_263_45" x1="40" y1="0" x2="40" y2="80" gradientUnits="userSpaceOnUse">
<stop stop-color="#1A3055"/>
<stop offset="1" stop-color="#451079"/>
</linearGradient>
</defs>
</svg>
